PathFileType	4	(X/Y/Z)	/Users/itak/Documents/Research/Walk-IL/dataset/trc/00362_00011.trc
DataRate	CameraRate	NumFrames	NumMarkers	Units	OrigDataRate	OrigDataStartFrame	OrigNumFrames
100.000000	100.000000	4	54	mm	100.000000	518	593
Frame#	Time	RPSI			LPSI			L3			STRN			T10			C7			CLAV			RBAK			LBAK			LSHO			LUPA			LAEL			LAOL			LWPS			LFRA			LIFD			LHPS			LHTS			RSHO			RUPA			RAEL			RAOL			RWPS			RFRA			RIFD			RHTS			RHPS			RBHD			LFHD			RFHD			LBHD			LHIP			RHIP			RASI			LASI			LKNE			LTHI			LANK			LTIP			LTOE			LMT1			LMT5			LHEE			RKNE			RTHI			RTIP			RTOE			RMT1			RMT5			RHEE			LWTS			RWTS			RANK			*53			
		X1	Y1	Z1	X2	Y2	Z2	X3	Y3	Z3	X4	Y4	Z4	X5	Y5	Z5	X6	Y6	Z6	X7	Y7	Z7	X8	Y8	Z8	X9	Y9	Z9	X10	Y10	Z10	X11	Y11	Z11	X12	Y12	Z12	X13	Y13	Z13	X14	Y14	Z14	X15	Y15	Z15	X16	Y16	Z16	X17	Y17	Z17	X18	Y18	Z18	X19	Y19	Z19	X20	Y20	Z20	X21	Y21	Z21	X22	Y22	Z22	X23	Y23	Z23	X24	Y24	Z24	X25	Y25	Z25	X26	Y26	Z26	X27	Y27	Z27	X28	Y28	Z28	X29	Y29	Z29	X30	Y30	Z30	X31	Y31	Z31	X32	Y32	Z32	X33	Y33	Z33	X34	Y34	Z34	X35	Y35	Z35	X36	Y36	Z36	X37	Y37	Z37	X38	Y38	Z38	X39	Y39	Z39	X40	Y40	Z40	X41	Y41	Z41	X42	Y42	Z42	X43	Y43	Z43	X44	Y44	Z44	X45	Y45	Z45	X46	Y46	Z46	X47	Y47	Z47	X48	Y48	Z48	X49	Y49	Z49	X50	Y50	Z50	X51	Y51	Z51	X52	Y52	Z52	X53	Y53	Z53	X54	Y54	Z54	

519	5.18	496.6945495605469	975.8173828125	-406.422119140625	367.6927795410156	973.74365234375	-403.1336364746094	438.1447143554688	1024.927856445312	-403.8293762207031	415.4937744140625	1224.283081054688	-616.6650390625	426.7915344238281	1142.953002929688	-383.7797241210938	409.6860656738281	1393.419799804688	-408.1137390136719	412.2064819335938	1347.838012695312	-567.7858276367188	477.4215087890625	1252.128051757812	-372.1048278808594	308.8698120117188	1354.321899414062	-397.5387878417969	250.3047027587891	1377.745727539062	-479.9453125	181.7018127441406	1258.296630859375	-469.1907653808594	150.8556060791016	1060.229736328125	-509.1434326171875	210.8766479492188	1034.883178710938	-453.4013977050781	112.8080215454102	821.2205200195312	-597.307861328125	133.5907287597656	959.8911743164062	-537.1262817382812	144.8898468017578	677.4389038085938	-674.089111328125	112.1328582763672	752.5377807617188	-606.38623046875	139.1282501220703	762.592529296875	-663.2807006835938	572.2741088867188	1384.962768554688	-468.4388122558594	634.41650390625	1318.607666015625	-461.7598876953125	668.9655151367188	1050.837768554688	-489.5789489746094	581.2774658203125	1041.655151367188	-457.0451354980469	699.3997802734375	814.6997680664062	-577.9662475585938	680.9170532226562	986.8292846679688	-518.6160278320312	643.3079223632812	654.1388549804688	-626.4078979492188	647.4862060546875	726.8787231445312	-641.665771484375	696.7291259765625	729.450439453125	-592.7891845703125	483.9810485839844	1590.173217773438	-420.2501831054688	367.0909118652344	1641.90087890625	-584.7993774414062	467.6216125488281	1642.152465820312	-573.3400268554688	340.1957702636719	1578.659301757812	-411.2913208007812	262.537109375	916.0213012695312	-485.8155517578125	608.2877807617188	925.2218017578125	-494.6656494140625	555.8369750976562	953.5208740234375	-593.288330078125	315.6196594238281	944.681884765625	-608.1116333007812	256.822998046875	461.5919494628906	-522.826416015625	250.8898620605469	599.928955078125	-529.8583374023438	251.0499725341797	43.54317092895508	-465.7803955078125	240.3875732421875	247.6481781005859	-492.6662292480469	310.2861328125	40.10537338256836	-670.2823486328125	350.8948974609375	28.17172431945801	-600.8865966796875	237.5234527587891	39.02216720581055	-591.0049438476562	317.1615295410156	39.00128173828125	-429.9931945800781	601.0145874023438	462.9510803222656	-528.0452880859375	604.1395874023438	724.4325561523438	-573.27099609375	597.6895751953125	345.9057312011719	-535.3912353515625	544.4220581054688	45.89044570922852	-664.9335327148438	504.240234375	39.88532638549805	-607.5322265625	617.831298828125	28.73892784118652	-575.705810546875	554.6533203125	48.37344741821289	-423.8892517089844	164.9764404296875	834.3090209960938	-641.7994995117188	633.7706298828125	828.6154174804688	-614.7701416015625	601.1104125976562	45.74064636230469	-474.7626037597656	nan	nan	nan	
520	5.19	495.8012084960938	976.2279052734375	-406.9857177734375	366.9715270996094	974.1784057617188	-403.8672180175781	437.3052062988281	1025.169799804688	-404.6581420898438	414.9139099121094	1224.315795898438	-617.5469970703125	426.0242309570312	1143.141357421875	-384.7177734375	408.9971618652344	1393.611694335938	-409.1006164550781	411.6593017578125	1347.915283203125	-568.78369140625	476.6954956054688	1252.260375976562	-373.0763244628906	308.1561279296875	1354.534912109375	-398.6481323242188	249.7552795410156	1378.085693359375	-481.0699157714844	180.8490905761719	1258.806762695312	-470.7302856445312	149.4282836914062	1061.148681640625	-512.0936889648438	209.0137176513672	1035.095947265625	-456.2987365722656	110.8467864990234	823.1673583984375	-602.3424072265625	131.9218444824219	961.07177734375	-540.9036865234375	141.9591674804688	679.9595947265625	-680.4515380859375	109.651123046875	754.6441040039062	-612.1396484375	136.9565277099609	765.0368041992188	-668.8551635742188	571.6277465820312	1385.134399414062	-469.3055114746094	633.7810668945312	1318.842895507812	-462.4212951660156	667.9310913085938	1050.847412109375	-488.6873474121094	579.897216796875	1041.990478515625	-456.9984741210938	699.5040283203125	814.29833984375	-574.8257446289062	680.1723022460938	986.7490234375	-517.1847534179688	644.397705078125	653.072021484375	-622.5180053710938	648.6806640625	725.8214721679688	-638.440673828125	697.2783813476562	728.958251953125	-588.9796752929688	483.3074035644531	1590.267822265625	-421.0943298339844	366.6293029785156	1642.033081054688	-585.7679443359375	467.1551818847656	1642.309692382812	-574.1895751953125	339.4548645019531	1578.741577148438	-412.330078125	261.9231872558594	916.13916015625	-486.675537109375	607.4917602539062	925.2316284179688	-495.0029907226562	555.241455078125	953.4209594726562	-593.8185424804688	314.9584350585938	944.583984375	-608.8440551757812	256.1932373046875	461.5565795898438	-522.9702758789062	250.626953125	599.8056640625	-530.1416015625	250.9858551025391	43.53486251831055	-465.7750549316406	240.0831146240234	247.60595703125	-492.6734313964844	310.2730407714844	40.13391494750977	-670.2572021484375	350.8870544433594	28.18847846984863	-600.877685546875	237.5090026855469	39.01358032226562	-590.9989624023438	317.1117858886719	39.02005004882812	-429.9892883300781	600.486083984375	462.9376525878906	-527.6143798828125	603.5819091796875	724.4356689453125	-573.3812255859375	597.4110107421875	345.9971008300781	-534.9385986328125	545.1795654296875	45.91533660888672	-665.08642578125	504.6251220703125	39.86260604858398	-607.9358520507812	618.1196899414062	28.73978233337402	-575.5451049804688	553.939208984375	48.19946670532227	-424.0083312988281	163.3917388916016	836.330322265625	-646.48388671875	634.3564453125	827.8137817382812	-612.63232421875	600.7264404296875	45.81029510498047	-474.6245727539062	nan	nan	nan	
521	5.2	494.9731750488281	976.5468139648438	-407.5706787109375	366.3193359375	974.5516967773438	-404.54248046875	436.5063781738281	1025.378173828125	-405.456298828125	414.4137573242188	1224.30859375	-618.3812866210938	425.3519287109375	1143.256958007812	-385.659912109375	408.3397521972656	1393.759155273438	-410.0296630859375	411.1804504394531	1347.9541015625	-569.7366943359375	476.0101318359375	1252.366088867188	-373.9837036132812	307.4580383300781	1354.684692382812	-399.7168579101562	249.2463073730469	1378.345947265625	-482.1670837402344	180.0636444091797	1259.244995117188	-472.2338562011719	148.082275390625	1061.95654296875	-514.9365234375	207.2112884521484	1035.234130859375	-459.0859680175781	109.0736999511719	824.9432983398438	-607.197509765625	130.358642578125	962.13232421875	-544.5350952148438	139.5136566162109	682.3154296875	-686.5333251953125	107.5331039428711	756.5547485351562	-617.6617431640625	135.0963439941406	767.2911987304688	-674.2255249023438	571.0260620117188	1385.27685546875	-470.1033325195312	633.2160034179688	1319.060424804688	-463.0392150878906	667.001220703125	1050.854125976562	-487.8479614257812	578.628173828125	1042.285888671875	-456.9320068359375	699.6343383789062	813.9327392578125	-571.8582153320312	679.5210571289062	986.6705932617188	-515.8299560546875	645.4140014648438	652.0950927734375	-618.8328247070312	649.8451538085938	724.8605346679688	-635.4224243164062	697.7919311523438	728.5036010742188	-585.370849609375	482.7008972167969	1590.371826171875	-421.925537109375	366.1908264160156	1642.123413085938	-586.7072143554688	466.7119750976562	1642.4306640625	-575.0317993164062	338.80322265625	1578.818481445312	-413.3161926269531	261.3262023925781	916.2081298828125	-487.4816589355469	606.7296752929688	925.1948852539062	-495.35009765625	554.6798706054688	953.2745971679688	-594.3584594726562	314.3316650390625	944.4622192382812	-609.56103515625	255.6150360107422	461.4476318359375	-523.11767578125	250.2620086669922	599.6886596679688	-530.3578491210938	250.9313201904297	43.53815841674805	-465.77392578125	239.8014678955078	247.5524749755859	-492.6953125	310.26611328125	40.15481567382812	-670.241943359375	350.8832397460938	28.20092964172363	-600.8709716796875	237.5035400390625	39.01210784912109	-590.994873046875	317.0850524902344	39.03204345703125	-429.9868774414062	599.9846801757812	462.8882141113281	-527.130615234375	603.0579833984375	724.3921508789062	-573.5012817382812	597.1520385742188	346.0770874023438	-534.4288330078125	545.8992919921875	45.8885383605957	-665.206787109375	504.977294921875	39.82680511474609	-608.2920532226562	618.379638671875	28.74751281738281	-575.3883056640625	553.2422485351562	47.95636367797852	-424.0893859863281	161.9953308105469	838.2332763671875	-651.0178833007812	634.9944458007812	827.0922241210938	-610.6569213867188	600.3563232421875	45.79884338378906	-474.472900390625	nan	nan	nan	
522	5.21	494.2243347167969	976.7556762695312	-408.1927185058594	365.7322387695312	974.8413696289062	-405.1779479980469	435.7593688964844	1025.5361328125	-406.2254028320312	413.9945983886719	1224.264892578125	-619.17236328125	424.7562866210938	1143.295043945312	-386.5918579101562	407.7089538574219	1393.8583984375	-410.9066162109375	410.7636108398438	1347.953857421875	-570.6432495117188	475.3593444824219	1252.446655273438	-374.8176574707031	306.777099609375	1354.773071289062	-400.7456359863281	248.7716674804688	1378.521240234375	-483.2422790527344	179.337890625	1259.594848632812	-473.7072448730469	146.8089294433594	1062.637573242188	-517.6635131835938	205.5016326904297	1035.297973632812	-461.756591796875	107.4938888549805	826.5206298828125	-611.85888671875	128.9073486328125	963.0551147460938	-548.0098266601562	137.5430145263672	684.4901733398438	-692.33984375	105.7481918334961	758.2479858398438	-622.9390869140625	133.5331268310547	769.3405151367188	-679.371337890625	570.4673461914062	1385.38623046875	-470.8324584960938	632.7207641601562	1319.253540039062	-463.616455078125	666.18017578125	1050.8544921875	-487.0614929199219	577.4844970703125	1042.534790039062	-456.84716796875	699.7822875976562	813.5843505859375	-569.071533203125	678.9641723632812	986.5831909179688	-514.547119140625	646.3687744140625	651.235107421875	-615.4131469726562	650.9640502929688	723.9984741210938	-632.6195678710938	698.2548828125	728.0698852539062	-581.9833374023438	482.1600646972656	1590.474609375	-422.7424011230469	365.7754821777344	1642.172241210938	-587.614501953125	466.2897033691406	1642.506103515625	-575.8592529296875	338.2446899414062	1578.886108398438	-414.2478637695312	260.7400207519531	916.2300415039062	-488.2476806640625	605.9952392578125	925.1069946289062	-495.7099304199219	554.14599609375	953.0770263671875	-594.910888671875	313.7468872070312	944.3328247070312	-610.270751953125	255.0945434570312	461.2835083007812	-523.2793579101562	249.7850799560547	599.59716796875	-530.526123046875	250.8830718994141	43.54778289794922	-465.7745666503906	239.5329742431641	247.4944610595703	-492.7394104003906	310.2619018554688	40.17118072509766	-670.2340698242188	350.8810119628906	28.21116256713867	-600.8656616210938	237.5040588378906	39.01723480224609	-590.9915771484375	317.0731811523438	39.03929901123047	-429.9848937988281	599.5151977539062	462.8267517089844	-526.6051025390625	602.5616455078125	724.29736328125	-573.6339111328125	596.9146728515625	346.1417541503906	-533.8782348632812	546.5403442382812	45.8116340637207	-665.2938232421875	505.2764282226562	39.78241729736328	-608.587646484375	618.5932006835938	28.75826454162598	-575.2445068359375	552.6122436523438	47.66737747192383	-424.1254577636719	160.7566070556641	840.001953125	-655.3848876953125	635.6550903320312	826.4196166992188	-608.8232421875	600.0202026367188	45.71149444580078	-474.3093566894531	nan	nan	nan	
